<svg width="17" height="17" viewBox="0 0 17 17" fill="none" xmlns="http://www.w3.org/2000/svg">
<path fill-rule="evenodd" clip-rule="evenodd" d="M11.149 9.70138C12.8586 7.30268 12.6373 3.951 10.4853 1.79899C8.08656 -0.599663 4.19763 -0.599663 1.79898 1.79899C-0.59966 4.19764 -0.59966 8.08662 1.79898 10.4852C3.95101 12.6373 7.30262 12.8585 9.70132 11.1491L15.5522 17L17 15.5523L11.149 9.70138ZM9.03756 3.2467C10.6367 4.8458 10.6367 7.43842 9.03756 9.03752C7.43846 10.6366 4.84579 10.6366 3.24669 9.03752C1.6476 7.43842 1.6476 4.8458 3.24669 3.2467C4.84579 1.64761 7.43846 1.64761 9.03756 3.2467Z" fill="#616475"/>
</svg>
